<?xml version="1.0" encoding="UTF-8"?>
<svg enable-background="new 0 0 80.1 18" version="1.1" viewBox="0 0 80.1 18" xml:space="preserve" xmlns="http://www.w3.org/2000/svg">
<style type="text/css">
	.st0{fill:none;}
	.st1{fill:#151616;}
</style>
<title>uber</title>
<path class="st0" d="m26.4 7.4h5.6c0.8 0 1.6-0.6 1.7-1.4 0.1-0.4 0.1-0.8 0.1-1.2-0.1-1.4-0.7-2-2-2h-5.4c-0.3 0-0.3 0.1-0.3 0.4v3.9c-0.1 0.3 0 0.3 0.3 0.3zm5.9 2.7h-4.4c-0.2 0-0.5 0-0.7 0.1-0.7 0.2-1.1 0.5-1.1 1.3-0.1 1.1 0 2.1 0 3.2 0 0.3 0.1 0.4 0.4 0.4h6.3c0.9 0 1.6-0.6 1.8-1.4 0.1-0.4 0.1-0.8 0.1-1.2-0.2-1.8-0.8-2.4-2.4-2.4zm42.6-7c-0.4-0.1-0.8-0.2-1.2-0.2h-5.7c-0.1 0-0.3 0.1-0.3 0.2v0.1 4.8c0 0.3 0.1 0.3 0.3 0.3h3c1.1 0.1 2.1 0 3.2-0.1 0.9 0 1.7-0.7 1.8-1.6 0.1-0.7 0.1-1.4 0-2.1 0-0.7-0.5-1.2-1.1-1.4z"/>
	<path class="st1" d="m76.5 11.1c-0.3-0.5-0.3-0.5 0.2-0.6 1.2-0.4 2.1-1.3 2.4-2.5s0.4-2.5 0.3-3.8c-0.1-1-0.5-1.9-1.2-2.6-0.8-0.8-1.9-1.3-3.1-1.4-1.4-0.2-2.9-0.2-4.3-0.2h-4.8c-1.2 0-1.5 0.4-1.5 1.5v15.8c0 0.3 0.2 0.5 0.4 0.5h0.1 2.5c0.3 0 0.4-0.1 0.4-0.5v-4.5c0-1.3 0.5-1.7 1.7-1.8h3c0.3 0 0.4 0.1 0.6 0.4l3 5.9c0.1 0.3 0.4 0.5 0.8 0.5h2.6c0.2 0 0.3 0 0.5-0.1v-0.2c-1.3-2.1-2.4-4.3-3.6-6.4zm-0.4-4.5c-0.1 0.9-0.8 1.4-1.8 1.6s-2.3 0-3.2 0.1h-3c-0.1 0-0.3-0.1-0.3-0.2v-0.1-4.8c0-0.1 0.1-0.3 0.2-0.3h0.1 5.7c0.4 0 0.8 0.1 1.2 0.2 0.6 0.3 1.1 0.8 1.2 1.5 0 0.7 0 1.3-0.1 2z"/>
	<path class="st1" d="m15.9 0h-2.9c-0.2 0-0.3 0.1-0.4 0.4v9.8c0 0.6 0 1.2-0.1 1.8-0.2 1.4-1.1 2.5-2.4 2.9-1.1 0.4-2.3 0.4-3.5 0.2-1.5-0.2-2.6-1.3-2.9-2.7-0.2-0.7-0.2-1.5-0.2-2.2v-9.7c0-0.4-0.1-0.5-0.4-0.5h-2.3c-0.7 0-0.8 0.1-0.8 0.7v9.4c0 0.9 0.1 1.7 0.2 2.6 0.4 2.2 1.9 4.1 4.1 4.8 0.6 0.1 1.2 0.3 1.7 0.5h3.8c0.5-0.1 1-0.2 1.4-0.4 2.1-0.5 3.7-2 4.3-4.1 0.3-1.1 0.5-2.2 0.4-3.3v-10c0.2-0.1 0.1-0.2 0-0.2z"/>
	<path class="st1" d="m36.6 9.1c-0.4-0.3-0.8-0.6-1.3-0.7 0.7-0.4 1.2-1.1 1.5-1.8 0.4-0.9 0.5-1.9 0.3-2.9-0.1-1.5-1.1-2.8-2.5-3.2-1-0.3-2.1-0.5-3.1-0.4h-7.4c-0.3 0-0.5 0.1-0.8 0.1-0.4 0.1-0.7 0.4-0.7 0.8v15.6c0 1 0.3 1.3 1.2 1.3h8.4c0.7 0 1.3 0 2-0.2 1.6-0.3 2.9-1.3 3.5-2.8 0.4-1.2 0.4-2.4 0.1-3.6-0.1-0.9-0.5-1.7-1.2-2.2zm-10.7-2.2c0.1-1.1 0.1-2.4 0.1-3.7 0-0.3 0-0.4 0.3-0.4h5.4c1.4 0 1.9 0.5 2 2 0 0.4 0 0.8-0.1 1.2-0.2 0.8-0.9 1.3-1.7 1.3h-5.6c-0.3 0-0.4-0.1-0.4-0.4zm8.6 6.6c-0.1 0.9-0.9 1.5-1.8 1.4-1 0.1-2 0.1-3 0h-3.3c-0.3 0-0.4 0-0.4-0.4v-3.2c-0.1-0.6 0.4-1.2 1-1.3h0.1c0.2-0.1 0.5-0.1 0.7-0.1h4.4c1.7 0 2.2 0.6 2.4 2.3 0 0.4 0 0.9-0.1 1.3z"/>
	<path class="st1" d="m58 0h-11.9c-0.3 0-0.5 0-0.8 0.1-0.6 0.1-1 0.6-1 1.2v15.5c0 0.6 0.2 0.9 0.8 1 0.1 0 0.3 0.1 0.4 0.1h11.4c0.3 0 0.5-0.2 0.6-0.5l0.6-1.8c0.3-0.7 0.3-0.6-0.4-0.6h-9.7c-0.2 0-0.4 0.1-0.4-0.3v-3.2c0-0.5 0.4-1 0.9-1.2 0.4-0.1 0.7-0.2 1.1-0.2h4.6c0.2 0 0.4 0 0.5-0.2 0.3-0.8 0.6-1.6 1-2.5h-7.6c-0.3 0-0.4-0.1-0.4-0.4v-3.7c0.1-0.5 0-0.4 0.6-0.4h8.6c0.4 0 0.7-0.2 0.8-0.5 0.2-0.6 0.4-1.2 0.7-1.8 0.2-0.6 0.1-0.6-0.4-0.6z"/>
</svg>
